<?xml version="1.0" encoding="UTF-8" standalone="no"?>
<!DOCTYPE svg PUBLIC "-//W3C//DTD SVG 1.1//EN" "http://www.w3.org/Graphics/SVG/1.1/DTD/svg11.dtd">
<svg width="100%" height="100%" viewBox="0 0 250 250" version="1.1" xmlns="http://www.w3.org/2000/svg" xmlns:xlink="http://www.w3.org/1999/xlink" xml:space="preserve" xmlns:serif="http://www.serif.com/" style="fill-rule:evenodd;clip-rule:evenodd;stroke-linejoin:round;stroke-miterlimit:2;">
    <g transform="matrix(1,0,0,1,-1370.47,-1694.24)">
        <g transform="matrix(4.16667,0,0,4.16667,1243.25,1448.6)">
            <path d="M53.852,89.9L63.205,89.9C63.367,88.296 63.813,86.793 64.532,85.431C65.048,84.454 65.31,83.393 65.31,82.28C65.31,80.349 64.483,78.504 63.041,77.217C61.58,75.913 59.695,75.316 57.725,75.542C54.742,75.882 52.258,78.279 51.819,81.24C51.612,82.632 51.826,84.022 52.436,85.259C53.232,86.871 53.696,88.392 53.852,89.9ZM63.773,91.15L53.279,91.15C52.953,91.15 52.682,90.9 52.656,90.576L52.629,90.241C52.511,88.814 52.081,87.366 51.315,85.812C50.592,84.346 50.338,82.701 50.582,81.056C51.112,77.488 53.991,74.71 57.583,74.3C59.872,74.037 62.167,74.761 63.873,76.284C65.581,77.808 66.56,79.994 66.56,82.28C66.56,83.58 66.241,84.872 65.637,86.015C64.989,87.244 64.588,88.606 64.446,90.063L64.395,90.586C64.364,90.906 64.095,91.15 63.773,91.15Z" style="fill:white;fill-rule:nonzero;"/>
        </g>
        <g transform="matrix(4.16667,0,0,4.16667,1243.25,1448.6)">
            <path d="M59.503,91.15L59.434,91.147C59.091,91.109 58.843,90.8 58.881,90.457L59.744,82.63C59.782,82.287 60.097,82.033 60.433,82.077C60.777,82.115 61.024,82.424 60.986,82.767L60.123,90.594C60.088,90.914 59.818,91.15 59.503,91.15Z" style="fill:white;fill-rule:nonzero;"/>
        </g>
        <g transform="matrix(4.16667,0,0,4.16667,1243.25,1448.6)">
            <path d="M57.549,91.15C57.234,91.15 56.964,90.914 56.928,90.594L56.066,82.767C56.028,82.424 56.275,82.115 56.618,82.077C56.954,82.035 57.27,82.287 57.308,82.63L58.171,90.457C58.209,90.8 57.961,91.109 57.618,91.147L57.549,91.15Z" style="fill:white;fill-rule:nonzero;"/>
        </g>
        <g transform="matrix(4.16667,0,0,4.16667,1243.25,1448.6)">
            <path d="M61.861,84.82L55.191,84.82C54.021,84.82 53.069,83.868 53.069,82.698C53.069,81.529 54.021,80.577 55.191,80.577C56.283,80.577 57.133,81.394 57.305,82.61C57.354,82.952 57.116,83.269 56.775,83.317C56.434,83.37 56.117,83.128 56.068,82.786C56.002,82.323 55.737,81.827 55.191,81.827C54.71,81.827 54.319,82.218 54.319,82.698C54.319,83.179 54.71,83.57 55.191,83.57L61.861,83.57C62.342,83.57 62.733,83.179 62.733,82.698C62.733,82.218 62.342,81.827 61.861,81.827C61.315,81.827 61.05,82.323 60.984,82.786C60.935,83.128 60.616,83.369 60.277,83.317C59.935,83.269 59.698,82.952 59.746,82.61C59.919,81.394 60.769,80.577 61.861,80.577C63.031,80.577 63.983,81.529 63.983,82.698C63.983,83.868 63.031,84.82 61.861,84.82Z" style="fill:white;fill-rule:nonzero;"/>
        </g>
        <g transform="matrix(4.16667,0,0,4.16667,1243.25,1448.6)">
            <path d="M59.469,95.388L57.583,95.388C57.238,95.388 56.958,95.668 56.958,96.013C56.958,96.358 57.238,96.638 57.583,96.638L59.469,96.638C59.814,96.638 60.094,96.358 60.094,96.013C60.094,95.668 59.814,95.388 59.469,95.388Z" style="fill:white;fill-rule:nonzero;"/>
        </g>
        <g transform="matrix(4.16667,0,0,4.16667,1243.25,1448.6)">
            <path d="M53.904,92.93L53.904,91.15L63.148,91.15L63.148,92.93C63.148,95.478 61.074,97.551 58.526,97.551C55.977,97.551 53.904,95.478 53.904,92.93ZM80.78,94.94L74.071,76.802C70.845,69.015 60.209,65.223 51.306,68.686C44.579,71.303 40.24,77.875 40.249,85.43C40.253,88.509 41.053,91.539 42.553,94.208L42.553,109.884C42.553,110.23 42.833,110.509 43.178,110.509C43.524,110.509 43.803,110.23 43.803,109.884L43.803,94.053L43.796,94.016L43.772,93.895L43.732,93.776L43.72,93.741C42.271,91.224 41.503,88.349 41.499,85.428C41.49,78.394 45.517,72.279 51.76,69.851C60.054,66.625 69.94,70.096 72.907,77.258L79.296,94.532L76.32,94.532C75.974,94.532 75.695,94.812 75.695,95.157L75.695,100.987C75.695,105.548 71.984,109.259 67.423,109.259C62.862,109.259 59.151,105.548 59.151,100.987L59.151,98.767C62.096,98.454 64.398,95.956 64.398,92.93L64.398,90.525C64.398,90.18 64.118,89.9 63.773,89.9L53.279,89.9C52.934,89.9 52.654,90.18 52.654,90.525L52.654,92.93C52.654,95.956 54.956,98.454 57.901,98.767L57.901,100.987C57.901,106.238 62.172,110.509 67.423,110.509C72.673,110.509 76.945,106.238 76.945,100.987L76.945,95.782L80.194,95.782C80.398,95.782 80.59,95.682 80.706,95.514C80.824,95.347 80.851,95.132 80.78,94.94Z" style="fill:white;fill-rule:nonzero;"/>
        </g>
        <g transform="matrix(4.16667,0,0,4.16667,1243.25,1448.6)">
            <path d="M62.059,92.688C62.059,92.343 61.779,92.063 61.434,92.063L55.618,92.063C55.273,92.063 54.993,92.343 54.993,92.688C54.993,93.034 55.273,93.313 55.618,93.313L61.434,93.313C61.779,93.313 62.059,93.034 62.059,92.688Z" style="fill:white;fill-rule:nonzero;"/>
        </g>
        <g transform="matrix(4.16667,0,0,4.16667,1243.25,1448.6)">
            <path d="M60.553,93.726L56.498,93.726C56.153,93.726 55.873,94.005 55.873,94.351C55.873,94.696 56.153,94.976 56.498,94.976L60.553,94.976C60.899,94.976 61.178,94.696 61.178,94.351C61.178,94.005 60.899,93.726 60.553,93.726Z" style="fill:white;fill-rule:nonzero;"/>
        </g>
    </g>
</svg>
