<?xml version="1.0" encoding="UTF-8" standalone="no"?>
<!DOCTYPE svg PUBLIC "-//W3C//DTD SVG 1.1//EN" "http://www.w3.org/Graphics/SVG/1.1/DTD/svg11.dtd">
<svg width="100%" height="100%" viewBox="0 0 250 250" version="1.1" xmlns="http://www.w3.org/2000/svg" xmlns:xlink="http://www.w3.org/1999/xlink" xml:space="preserve" xmlns:serif="http://www.serif.com/" style="fill-rule:evenodd;clip-rule:evenodd;stroke-linejoin:round;stroke-miterlimit:2;">
    <g transform="matrix(1,0,0,1,-2066.21,-1147.79)">
        <g transform="matrix(0.793532,-0.246593,0.246593,0.793532,74.5054,848.628)">
            <path d="M2260.84,1225.9C2243,1220.32 2233.03,1201.28 2238.6,1183.44L2243.04,1169.22C2244.43,1164.78 2246.23,1160.81 2248.4,1157.36C2256.49,1166.37 2266.4,1172.83 2277.46,1176.29C2278.9,1176.74 2280.36,1177.14 2281.84,1177.48C2283.64,1177.91 2285.44,1176.79 2285.87,1174.99C2285.98,1174.52 2285.98,1174.05 2285.9,1173.6L2284.55,1165.52C2289.46,1169.23 2294.85,1172.54 2300.48,1174.29C2303.63,1175.28 2306.86,1175.76 2310.11,1175.57C2310.04,1179.95 2309.25,1184.6 2307.74,1189.43L2303.29,1203.65C2297.72,1221.49 2278.68,1231.47 2260.84,1225.9ZM2245.81,1232.93L2247.72,1226.82C2251.04,1229.15 2254.77,1231.01 2258.84,1232.28C2258.84,1232.29 2258.85,1232.29 2258.85,1232.29C2262.92,1233.56 2267.04,1234.15 2271.09,1234.13L2269.19,1240.23C2268.79,1241.48 2264.94,1252.31 2253.7,1248.8C2242.45,1245.28 2245.44,1234.17 2245.81,1232.93ZM2234.24,1174.95C2233.67,1168.34 2234.04,1162.25 2235.87,1156.39C2242.88,1133.96 2263.9,1124.62 2289.43,1132.6C2310.87,1139.3 2328.93,1157.47 2320.96,1182.98C2318.95,1189.42 2315.73,1194.8 2311.5,1199.81L2314.12,1191.43C2316.31,1184.44 2317.17,1177.73 2316.69,1171.49C2316.55,1169.65 2314.94,1168.27 2313.1,1168.41C2312.9,1168.42 2312.71,1168.45 2312.53,1168.5C2304.44,1170.42 2295.02,1166.19 2282,1154.78C2280.61,1153.56 2278.49,1153.7 2277.28,1155.09C2276.59,1155.87 2276.35,1156.89 2276.51,1157.84L2276.49,1157.84L2278.44,1169.57C2267.75,1166 2258.26,1159.25 2250.77,1149.82C2249.63,1148.38 2247.52,1148.14 2246.07,1149.28C2245.87,1149.45 2245.69,1149.64 2245.53,1149.84L2245.53,1149.83C2241.75,1154.61 2238.77,1160.46 2236.66,1167.22L2234.24,1174.95ZM2197.3,1269.68C2197.72,1268.02 2198.77,1266.65 2200.26,1265.81C2201.75,1264.98 2203.47,1264.8 2205.1,1265.31L2284.16,1290.01C2285.79,1290.52 2287.1,1291.65 2287.85,1293.18C2288.6,1294.72 2288.68,1296.44 2288.08,1298.04L2267.69,1352.5L2183.06,1326.05L2197.3,1269.68ZM2304.87,1215.8C2314.09,1207.76 2323.14,1198.45 2327.35,1184.98C2331.5,1171.71 2329.85,1158.95 2322.59,1148.08C2315.99,1138.19 2304.93,1130.43 2291.43,1126.21C2262.47,1117.16 2237.57,1128.49 2229.48,1154.4C2225.82,1166.11 2227.18,1178.1 2230.39,1192.45C2230.09,1203.62 2234.46,1214.35 2242.17,1222.14L2240.33,1228.03C2229.76,1225.89 2222.78,1225.37 2213.12,1225.92C2204.52,1226.42 2196.53,1230.54 2191.2,1237.25L2181.06,1250L2166.14,1268.77C2160.38,1276.02 2159.43,1286.01 2163.73,1294.21L2177.54,1320.58L2175.8,1327.48C2175.37,1329.21 2176.35,1330.97 2178.05,1331.5L2268.72,1359.83C2270.41,1360.36 2272.22,1359.47 2272.85,1357.81L2294.35,1300.39C2295.6,1297.05 2295.43,1293.45 2293.86,1290.24C2292.29,1287.04 2289.56,1284.69 2286.15,1283.62L2207.1,1258.92C2203.69,1257.86 2200.1,1258.23 2196.99,1259.97C2193.88,1261.72 2191.69,1264.58 2190.81,1268.04L2180,1310.85L2169.66,1291.11C2166.59,1285.25 2167.26,1278.11 2171.38,1272.93L2189.61,1250L2196.44,1241.42C2200.59,1236.2 2206.81,1232.99 2213.5,1232.6C2222.43,1232.09 2228.93,1232.56 2238.72,1234.53C2238.51,1236.24 2238.43,1238.41 2238.77,1240.71C2239.21,1243.62 2240.36,1247.06 2243.08,1250C2245.03,1252.11 2247.8,1253.97 2251.7,1255.19C2261.04,1258.11 2267.11,1254.33 2270.56,1250.65C2270.76,1250.43 2270.95,1250.22 2271.14,1250C2272.43,1248.49 2273.41,1246.93 2274.11,1245.6C2277.6,1247.11 2280.57,1248.52 2283.31,1250C2287.73,1252.39 2291.53,1254.95 2295.87,1258.34C2301.16,1262.47 2304.44,1268.65 2304.88,1275.3L2306.47,1299.27C2306.59,1301.12 2308.18,1302.51 2310.03,1302.39C2311.87,1302.27 2313.27,1300.67 2313.14,1298.83L2311.56,1274.86C2310.99,1266.31 2306.78,1258.36 2299.99,1253.06C2298.58,1251.97 2297.23,1250.95 2295.9,1250C2290.03,1245.79 2284.54,1242.8 2276.48,1239.34L2278.32,1233.44C2289.08,1231.43 2298.76,1225.11 2304.87,1215.8Z" style="fill:white;fill-rule:nonzero;"/>
        </g>
        <g transform="matrix(0.793532,-0.246593,0.246593,0.793532,74.5054,848.628)">
            <path d="M2380.57,1224.18L2360.68,1217.96C2358.92,1217.41 2357.04,1218.39 2356.49,1220.16C2355.94,1221.92 2356.92,1223.8 2358.69,1224.35L2378.58,1230.56C2382.69,1231.85 2384.99,1236.24 2383.7,1240.34C2382.42,1244.45 2378.03,1246.75 2373.92,1245.47L2341.99,1235.49C2334.35,1233.1 2326.21,1237.37 2323.82,1245C2323.3,1246.67 2323.1,1248.35 2323.18,1250C2323.46,1255.91 2327.37,1261.3 2333.34,1263.17L2349.3,1268.16C2353.41,1269.44 2355.71,1273.83 2354.43,1277.94C2353.14,1282.05 2348.76,1284.34 2344.65,1283.06C2337.79,1280.92 2330.47,1284.75 2328.32,1291.61L2324.56,1303.66C2324.01,1305.42 2324.99,1307.3 2326.76,1307.85C2328.52,1308.4 2330.4,1307.42 2330.95,1305.66L2334.71,1293.61C2335.75,1290.27 2339.32,1288.41 2342.65,1289.45C2350.28,1291.83 2358.43,1287.56 2360.82,1279.93C2363.2,1272.3 2358.93,1264.15 2351.3,1261.77L2335.33,1256.78C2332.22,1255.81 2330.15,1253.06 2329.89,1250C2329.8,1249.02 2329.9,1248 2330.21,1247C2331.49,1242.89 2335.88,1240.59 2339.99,1241.88L2365.99,1250L2371.93,1251.86C2376.31,1253.22 2380.86,1252.4 2384.39,1250C2387.01,1248.22 2389.08,1245.59 2390.09,1242.34C2392.47,1234.71 2388.21,1226.56 2380.57,1224.18Z" style="fill:white;fill-rule:nonzero;"/>
        </g>
        <g transform="matrix(0.793532,-0.246593,0.246593,0.793532,74.5054,848.628)">
            <path d="M2238.36,1305.35C2235.13,1304.35 2231.68,1306.15 2230.67,1309.38C2229.67,1312.61 2231.47,1316.06 2234.7,1317.06C2237.93,1318.07 2241.38,1316.27 2242.38,1313.04C2243.39,1309.81 2241.59,1306.36 2238.36,1305.35Z" style="fill:white;fill-rule:nonzero;"/>
        </g>
        <g transform="matrix(0.793532,-0.246593,0.246593,0.793532,74.5054,848.628)">
            <path d="M2349.57,1338.35C2350.53,1338.65 2351.3,1339.36 2351.68,1340.29C2352.05,1341.22 2351.99,1342.27 2351.51,1343.15L2345.42,1354.29C2343.74,1357.36 2340.52,1359.36 2337.02,1359.5L2333.31,1359.65L2343.22,1336.37L2349.57,1338.35ZM2321.87,1369.42L2295.71,1361.25L2305.67,1312.95L2341.19,1324.05L2321.87,1369.42ZM2348.76,1320.55C2348.36,1319.7 2347.62,1319.04 2346.72,1318.76L2304.13,1305.46C2303.23,1305.18 2302.25,1305.29 2301.44,1305.77C2300.62,1306.25 2300.05,1307.05 2299.86,1307.98L2288.55,1362.87C2288.2,1364.55 2289.19,1366.22 2290.83,1366.74L2322.77,1376.71C2324.41,1377.23 2326.17,1376.41 2326.84,1374.83L2330.4,1366.47L2337.28,1366.19C2343.12,1365.96 2348.49,1362.63 2351.29,1357.5L2357.38,1346.36C2358.83,1343.71 2359.01,1340.59 2357.88,1337.79C2356.75,1334.99 2354.45,1332.86 2351.57,1331.96L2345.85,1330.18L2348.8,1323.27C2349.17,1322.4 2349.15,1321.41 2348.76,1320.55Z" style="fill:white;fill-rule:nonzero;"/>
        </g>
    </g>
</svg>
