<?xml version="1.0" encoding="UTF-8" standalone="no"?>
<!DOCTYPE svg PUBLIC "-//W3C//DTD SVG 1.1//EN" "http://www.w3.org/Graphics/SVG/1.1/DTD/svg11.dtd">
<svg width="100%" height="100%" viewBox="0 0 250 250" version="1.1" xmlns="http://www.w3.org/2000/svg" xmlns:xlink="http://www.w3.org/1999/xlink" xml:space="preserve" xmlns:serif="http://www.serif.com/" style="fill-rule:evenodd;clip-rule:evenodd;stroke-linejoin:round;stroke-miterlimit:2;">
    <g transform="matrix(1,0,0,1,-157.256,-187.736)">
        <g transform="matrix(0.773899,-0.310359,0.310359,0.773899,-33.5679,173.698)">
            <path d="M200.746,325.474L228.309,296.124C232.871,291.266 239.334,288.575 246.042,288.743C254.974,288.966 261.414,289.967 271.008,292.737C270.667,294.422 270.404,296.577 270.558,298.903C270.89,303.94 273.189,310.715 282.252,314.389C293.885,319.104 301.707,312.605 305.42,306.702C314.183,311.375 319.48,315.13 326.017,321.16C330.945,325.707 333.711,332.138 333.603,338.803L332.949,379.062C332.842,385.677 328.835,391.619 322.742,394.198L302.21,402.885L321.045,362.942C322.566,359.717 322.689,356.111 321.391,352.789C320.092,349.467 317.558,346.9 314.252,345.56L237.493,314.446C234.187,313.106 230.581,313.184 227.335,314.664C224.091,316.145 221.668,318.819 220.514,322.193L206.221,363.977L197.534,343.446C194.956,337.352 196.216,330.297 200.746,325.474ZM278.213,291.718L282.477,281.201C285.564,283.836 289.11,286.036 293.073,287.644C293.074,287.644 293.074,287.645 293.075,287.645C293.077,287.646 293.078,287.646 293.08,287.646C293.081,287.647 293.082,287.647 293.083,287.648C293.084,287.649 293.085,287.648 293.086,287.649C297.048,289.253 301.123,290.145 305.172,290.402L300.905,300.93C300.413,302.144 295.783,312.653 284.767,308.187C273.843,303.76 277.738,292.926 278.213,291.718ZM277.875,239.563L283.209,226.401C284.842,222.375 286.813,218.814 289.084,215.757C296.066,224.89 304.956,231.764 315.15,235.896C316.491,236.439 317.854,236.936 319.238,237.383C320.996,237.952 322.883,236.987 323.451,235.229C323.602,234.766 323.642,234.295 323.595,233.842L322.984,226.456C327.294,230.271 332.07,233.735 337.18,235.807C340.063,236.976 343.055,237.687 346.125,237.784C345.699,241.874 344.593,246.154 342.808,250.559L337.473,263.721C330.812,280.153 312.025,288.103 295.593,281.445C279.163,274.782 271.214,255.996 277.875,239.563ZM277.396,213.65C285.776,192.974 306.407,185.781 329.955,195.326C349.727,203.34 365.411,221.952 355.88,245.463C353.576,251.148 350.289,255.826 346.162,260.098L349.009,253.073C351.639,246.586 352.989,240.259 353.024,234.27C353.034,232.422 351.544,230.916 349.697,230.904C349.558,230.904 349.424,230.91 349.29,230.926C341.512,232.119 332.77,227.392 321.321,215.563C320.034,214.233 317.917,214.201 316.591,215.485C315.841,216.21 315.504,217.201 315.583,218.166L316.496,229.193C306.75,224.967 298.366,217.87 292.061,208.431C291.036,206.895 288.956,206.482 287.42,207.508C287.2,207.655 287.01,207.828 286.836,208.014L286.83,208.007C282.856,212.269 279.552,217.612 277.008,223.888L274.415,230.284C274.463,224.298 275.3,218.82 277.396,213.65ZM290.193,412.682L208.026,379.376L226.845,324.358C227.398,322.742 228.559,321.462 230.113,320.752C231.668,320.043 233.396,320.006 234.979,320.648L311.738,351.762C313.322,352.404 314.536,353.633 315.158,355.225C315.779,356.816 315.721,358.543 314.993,360.088L290.193,412.682ZM191.372,346.054L202.973,373.472L200.67,380.205C200.095,381.885 200.933,383.722 202.579,384.389L290.612,420.072C292.258,420.739 294.139,420.005 294.896,418.398L297.931,411.962L325.349,400.36C333.881,396.75 339.49,388.432 339.64,379.17L340.293,338.911C340.433,330.342 336.882,322.08 330.554,316.241C323.463,309.698 317.755,305.674 308.248,300.629L312.485,290.175C322.553,288.9 331.903,283.706 338.277,275.555C347.672,268.63 357.016,260.477 362.083,247.977C367.078,235.653 366.509,223.353 360.439,212.407C354.929,202.47 344.995,194.202 332.468,189.124C305.573,178.222 280.949,187.069 271.194,211.136C266.787,222.009 267.143,233.526 269.064,247.435C267.944,257.742 271.038,268.004 277.386,275.944L273.151,286.394C262.794,283.384 255.879,282.295 246.209,282.053C237.598,281.838 229.295,285.297 223.431,291.543L195.868,320.893C189.526,327.646 187.761,337.522 191.372,346.054Z" style="fill:white;fill-rule:nonzero;"/>
        </g>
        <g transform="matrix(0.773899,-0.310359,0.310359,0.773899,-33.5679,173.698)">
            <path d="M245.519,338.084C240.959,336.236 235.747,338.442 233.898,343.002L231.803,348.17C231.341,349.31 230.038,349.861 228.898,349.399C227.185,348.705 225.234,349.531 224.541,351.243C223.846,352.956 224.671,354.907 226.384,355.601C227.524,356.063 228.076,357.366 227.614,358.506L225.519,363.675C223.67,368.234 225.876,373.447 230.436,375.295C232.149,375.99 234.1,375.164 234.794,373.452C235.488,371.739 234.663,369.788 232.95,369.094C231.81,368.632 231.258,367.329 231.721,366.188L233.815,361.021C234.607,359.066 234.655,356.993 234.092,355.115C235.803,354.159 237.213,352.638 238.005,350.684L240.1,345.516C240.562,344.375 241.866,343.824 243.005,344.286C244.718,344.98 246.669,344.155 247.363,342.442C248.057,340.73 247.232,338.779 245.519,338.084Z" style="fill:white;fill-rule:nonzero;"/>
        </g>
        <g transform="matrix(0.773899,-0.310359,0.310359,0.773899,-33.5679,173.698)">
            <path d="M296.084,376.633C294.945,376.171 294.393,374.868 294.855,373.728L296.95,368.56C298.798,364 296.592,358.787 292.033,356.938C290.32,356.244 288.369,357.07 287.675,358.782C286.981,360.495 287.806,362.446 289.519,363.14C290.659,363.602 291.21,364.905 290.749,366.045L288.654,371.214C287.862,373.167 287.814,375.241 288.376,377.119C286.666,378.075 285.256,379.596 284.464,381.55L282.369,386.718C281.907,387.858 280.604,388.41 279.464,387.948C277.75,387.253 275.8,388.079 275.106,389.792C274.412,391.504 275.237,393.455 276.95,394.149C281.509,395.998 286.723,393.792 288.571,389.232L290.666,384.064C291.128,382.924 292.431,382.373 293.571,382.834C295.284,383.529 297.234,382.703 297.929,380.991C298.623,379.278 297.798,377.327 296.084,376.633Z" style="fill:white;fill-rule:nonzero;"/>
        </g>
        <g transform="matrix(0.773899,-0.310359,0.310359,0.773899,-33.5679,173.698)">
            <path d="M244.569,370.119C242.146,369.137 239.377,370.309 238.396,372.731C237.414,375.154 238.585,377.923 241.008,378.905C243.43,379.887 246.199,378.715 247.181,376.292C248.163,373.871 246.992,371.101 244.569,370.119Z" style="fill:white;fill-rule:nonzero;"/>
        </g>
        <g transform="matrix(0.773899,-0.310359,0.310359,0.773899,-33.5679,173.698)">
            <path d="M257.489,375.356C255.067,374.374 252.298,375.546 251.316,377.968C250.334,380.391 251.505,383.16 253.928,384.142C256.351,385.124 259.12,383.952 260.101,381.53C261.083,379.108 259.911,376.338 257.489,375.356Z" style="fill:white;fill-rule:nonzero;"/>
        </g>
        <g transform="matrix(0.773899,-0.310359,0.310359,0.773899,-33.5679,173.698)">
            <path d="M270.41,380.593C267.987,379.611 265.218,380.784 264.236,383.206C263.254,385.628 264.426,388.397 266.849,389.379C269.271,390.361 272.041,389.189 273.022,386.767C274.004,384.345 272.833,381.575 270.41,380.593Z" style="fill:white;fill-rule:nonzero;"/>
        </g>
    </g>
</svg>
